<mxfile host="app.diagrams.net" modified="2023-11-12T07:28:31.011Z" agent="Mozilla/5.0 (Macintosh; Intel Mac OS X 10_15_7) AppleWebKit/537.36 (KHTML, like Gecko) Chrome/119.0.0.0 Safari/537.36" etag="Bv2wdHmT67DauMHqJUex" version="21.6.6" type="github">
  <diagram name="Page-1" id="e56a1550-8fbb-45ad-956c-1786394a9013">
    <mxGraphModel dx="5482" dy="2102" grid="1" gridSize="10" guides="1" tooltips="1" connect="1" arrows="1" fold="1" page="1" pageScale="1" pageWidth="1100" pageHeight="850" background="none" math="0" shadow="0">
      <root>
        <mxCell id="0" />
        <mxCell id="1" parent="0" />
        <mxCell id="GC7rGIHstX0zHKI9crm5-1" value="" style="rounded=0;whiteSpace=wrap;html=1;fillColor=default;strokeColor=none;" vertex="1" parent="1">
          <mxGeometry x="-3530" y="-1100" width="1360" height="700" as="geometry" />
        </mxCell>
        <mxCell id="GC7rGIHstX0zHKI9crm5-2" value="热 点 业 务 建 设 保 障" style="swimlane;fillColor=#2E6CF2;strokeColor=#2E6CF2;fontColor=#FFFFFF;swimlaneLine=1;swimlaneHead=1;container=0;rounded=1;startSize=40;swimlaneFillColor=none;shadow=0;fontSize=15;" vertex="1" parent="1">
          <mxGeometry x="-3320" y="-923" width="603" height="393" as="geometry">
            <mxRectangle x="-285" y="-680" width="100" height="30" as="alternateBounds" />
          </mxGeometry>
        </mxCell>
        <mxCell id="GC7rGIHstX0zHKI9crm5-3" value="手 段" style="swimlane;fillColor=#2E6CF2;strokeColor=#2E6CF2;fontColor=#FFFFFF;swimlaneLine=1;swimlaneHead=1;container=0;rounded=0;startSize=30;swimlaneFillColor=#FFFFFF;shadow=0;dashed=1;" vertex="1" parent="GC7rGIHstX0zHKI9crm5-2">
          <mxGeometry x="310" y="75" width="250" height="205" as="geometry">
            <mxRectangle x="-285" y="-680" width="100" height="30" as="alternateBounds" />
          </mxGeometry>
        </mxCell>
        <mxCell id="GC7rGIHstX0zHKI9crm5-4" value="Quark UI" style="rounded=1;whiteSpace=wrap;html=1;strokeColor=none;fillColor=#ebf1ff;" vertex="1" parent="GC7rGIHstX0zHKI9crm5-3">
          <mxGeometry x="130" y="100" width="100" height="44" as="geometry" />
        </mxCell>
        <mxCell id="GC7rGIHstX0zHKI9crm5-5" value="多Tab预请求" style="rounded=1;whiteSpace=wrap;html=1;strokeColor=none;fillColor=#ebf1ff;" vertex="1" parent="GC7rGIHstX0zHKI9crm5-3">
          <mxGeometry x="20" y="150" width="100" height="44" as="geometry" />
        </mxCell>
        <mxCell id="GC7rGIHstX0zHKI9crm5-6" value="Compass" style="rounded=1;whiteSpace=wrap;html=1;strokeColor=none;fillColor=#ebf1ff;" vertex="1" parent="GC7rGIHstX0zHKI9crm5-3">
          <mxGeometry x="20" y="44" width="100" height="44" as="geometry" />
        </mxCell>
        <mxCell id="GC7rGIHstX0zHKI9crm5-7" value="ER策略" style="rounded=1;whiteSpace=wrap;html=1;strokeColor=none;fillColor=#ebf1ff;" vertex="1" parent="GC7rGIHstX0zHKI9crm5-3">
          <mxGeometry x="130" y="45" width="100" height="44" as="geometry" />
        </mxCell>
        <mxCell id="GC7rGIHstX0zHKI9crm5-8" value="离线包" style="rounded=1;whiteSpace=wrap;html=1;strokeColor=none;fillColor=#ebf1ff;" vertex="1" parent="GC7rGIHstX0zHKI9crm5-3">
          <mxGeometry x="20" y="99" width="100" height="44" as="geometry" />
        </mxCell>
        <mxCell id="GC7rGIHstX0zHKI9crm5-9" value="SSR骨架" style="rounded=1;whiteSpace=wrap;html=1;strokeColor=none;fillColor=#ebf1ff;" vertex="1" parent="GC7rGIHstX0zHKI9crm5-3">
          <mxGeometry x="130" y="154" width="100" height="44" as="geometry" />
        </mxCell>
        <mxCell id="GC7rGIHstX0zHKI9crm5-10" value="业 务" style="swimlane;fillColor=#2E6CF2;strokeColor=#2E6CF2;fontColor=#FFFFFF;swimlaneLine=1;swimlaneHead=1;container=0;rounded=0;startSize=30;swimlaneFillColor=#FFFFFF;shadow=0;dashed=1;" vertex="1" parent="GC7rGIHstX0zHKI9crm5-2">
          <mxGeometry x="50" y="75" width="230" height="205" as="geometry">
            <mxRectangle x="-285" y="-680" width="100" height="30" as="alternateBounds" />
          </mxGeometry>
        </mxCell>
        <mxCell id="GC7rGIHstX0zHKI9crm5-11" value="高考" style="rounded=1;whiteSpace=wrap;html=1;strokeColor=none;fillColor=#ebf1ff;" vertex="1" parent="GC7rGIHstX0zHKI9crm5-10">
          <mxGeometry x="20" y="46" width="190" height="26" as="geometry" />
        </mxCell>
        <mxCell id="GC7rGIHstX0zHKI9crm5-12" value="热搜" style="rounded=1;whiteSpace=wrap;html=1;strokeColor=none;fillColor=#ebf1ff;" vertex="1" parent="GC7rGIHstX0zHKI9crm5-10">
          <mxGeometry x="20" y="83" width="190" height="26" as="geometry" />
        </mxCell>
        <mxCell id="GC7rGIHstX0zHKI9crm5-13" value="亚运" style="rounded=1;whiteSpace=wrap;html=1;strokeColor=none;fillColor=#ebf1ff;" vertex="1" parent="GC7rGIHstX0zHKI9crm5-10">
          <mxGeometry x="20" y="121" width="190" height="26" as="geometry" />
        </mxCell>
        <mxCell id="GC7rGIHstX0zHKI9crm5-14" value="..." style="rounded=1;whiteSpace=wrap;html=1;strokeColor=none;fillColor=#ebf1ff;" vertex="1" parent="GC7rGIHstX0zHKI9crm5-10">
          <mxGeometry x="20" y="160" width="190" height="26" as="geometry" />
        </mxCell>
        <mxCell id="GC7rGIHstX0zHKI9crm5-15" value="&lt;font color=&quot;#2e6cf2&quot;&gt;班车灰度&lt;/font&gt;" style="rounded=1;whiteSpace=wrap;html=1;strokeColor=none;fillColor=#ebf1ff;" vertex="1" parent="GC7rGIHstX0zHKI9crm5-2">
          <mxGeometry x="327" y="310" width="110" height="44" as="geometry" />
        </mxCell>
        <mxCell id="GC7rGIHstX0zHKI9crm5-16" value="&lt;font color=&quot;#2e6cf2&quot;&gt;ER服务&lt;/font&gt;" style="rounded=1;whiteSpace=wrap;html=1;strokeColor=none;fillColor=#ebf1ff;" vertex="1" parent="GC7rGIHstX0zHKI9crm5-2">
          <mxGeometry x="196" y="310" width="120" height="44" as="geometry" />
        </mxCell>
        <mxCell id="GC7rGIHstX0zHKI9crm5-17" value="&lt;font color=&quot;#2e6cf2&quot;&gt;白龙马&lt;/font&gt;" style="rounded=1;whiteSpace=wrap;html=1;strokeColor=none;fillColor=#ebf1ff;" vertex="1" parent="GC7rGIHstX0zHKI9crm5-2">
          <mxGeometry x="50" y="310" width="130" height="44" as="geometry" />
        </mxCell>
        <mxCell id="GC7rGIHstX0zHKI9crm5-18" value="" style="endArrow=none;html=1;rounded=1;entryX=0;entryY=0.5;entryDx=0;entryDy=0;exitX=1;exitY=0.5;exitDx=0;exitDy=0;strokeWidth=4;strokeColor=#EBF1FF;" edge="1" parent="GC7rGIHstX0zHKI9crm5-2" source="GC7rGIHstX0zHKI9crm5-17" target="GC7rGIHstX0zHKI9crm5-16">
          <mxGeometry width="50" height="50" relative="1" as="geometry">
            <mxPoint x="230" y="345" as="sourcePoint" />
            <mxPoint x="280" y="295" as="targetPoint" />
          </mxGeometry>
        </mxCell>
        <mxCell id="GC7rGIHstX0zHKI9crm5-19" value="" style="endArrow=none;html=1;rounded=1;entryX=0;entryY=0.5;entryDx=0;entryDy=0;strokeWidth=4;strokeColor=#EBF1FF;" edge="1" parent="GC7rGIHstX0zHKI9crm5-2" source="GC7rGIHstX0zHKI9crm5-16" target="GC7rGIHstX0zHKI9crm5-15">
          <mxGeometry width="50" height="50" relative="1" as="geometry">
            <mxPoint x="400" y="378.93000000000006" as="sourcePoint" />
            <mxPoint x="420" y="378.93000000000006" as="targetPoint" />
          </mxGeometry>
        </mxCell>
        <mxCell id="GC7rGIHstX0zHKI9crm5-20" value="&lt;font color=&quot;#2e6cf2&quot;&gt;云石监控&lt;/font&gt;" style="rounded=1;whiteSpace=wrap;html=1;strokeColor=none;fillColor=#ebf1ff;" vertex="1" parent="GC7rGIHstX0zHKI9crm5-2">
          <mxGeometry x="450" y="310" width="110" height="44" as="geometry" />
        </mxCell>
        <mxCell id="GC7rGIHstX0zHKI9crm5-21" value="" style="endArrow=none;html=1;rounded=1;entryX=0;entryY=0.5;entryDx=0;entryDy=0;strokeWidth=4;strokeColor=#EBF1FF;" edge="1" parent="GC7rGIHstX0zHKI9crm5-2">
          <mxGeometry width="50" height="50" relative="1" as="geometry">
            <mxPoint x="430" y="331.92999999999995" as="sourcePoint" />
            <mxPoint x="470" y="331.92999999999995" as="targetPoint" />
          </mxGeometry>
        </mxCell>
        <mxCell id="GC7rGIHstX0zHKI9crm5-22" value="难 点 与 规 划" style="swimlane;fillColor=#2E6CF2;strokeColor=#2E6CF2;fontColor=#FFFFFF;swimlaneLine=1;swimlaneHead=1;container=0;rounded=0;startSize=33;swimlaneFillColor=none;shadow=0;fontSize=15;dashed=1;" vertex="1" parent="1">
          <mxGeometry x="-2670" y="-923" width="360" height="393" as="geometry">
            <mxRectangle x="-285" y="-680" width="100" height="30" as="alternateBounds" />
          </mxGeometry>
        </mxCell>
        <mxCell id="GC7rGIHstX0zHKI9crm5-23" value="" style="edgeStyle=orthogonalEdgeStyle;rounded=0;orthogonalLoop=1;jettySize=auto;html=1;strokeColor=#2E6CF2;dashed=1;entryX=-0.011;entryY=0.574;entryDx=0;entryDy=0;entryPerimeter=0;" edge="1" parent="GC7rGIHstX0zHKI9crm5-22">
          <mxGeometry relative="1" as="geometry">
            <mxPoint x="140.07240458015258" y="215.00438769587936" as="sourcePoint" />
            <mxPoint x="183.91562175572517" y="239.2529538700362" as="targetPoint" />
            <Array as="points">
              <mxPoint x="160.46000000000004" y="214.72000000000003" />
              <mxPoint x="160.46000000000004" y="239.72000000000003" />
            </Array>
          </mxGeometry>
        </mxCell>
        <mxCell id="GC7rGIHstX0zHKI9crm5-24" value="快速落地" style="rounded=1;whiteSpace=wrap;html=1;strokeColor=none;fillColor=#ebf1ff;" vertex="1" parent="1">
          <mxGeometry x="-2620" y="-838.2228670922809" width="90.07671755725192" height="32.984329657574" as="geometry" />
        </mxCell>
        <mxCell id="GC7rGIHstX0zHKI9crm5-25" value="通用组件建设" style="rounded=1;whiteSpace=wrap;html=1;strokeColor=none;fillColor=#2E6CF2;fontColor=#FFFFFF;" vertex="1" parent="1">
          <mxGeometry x="-2485.35" y="-870" width="125.35" height="32.98" as="geometry" />
        </mxCell>
        <mxCell id="GC7rGIHstX0zHKI9crm5-26" style="edgeStyle=orthogonalEdgeStyle;rounded=0;orthogonalLoop=1;jettySize=auto;html=1;entryX=0;entryY=0.5;entryDx=0;entryDy=0;dashed=1;strokeColor=#2E6CF2;" edge="1" parent="1" source="GC7rGIHstX0zHKI9crm5-24" target="GC7rGIHstX0zHKI9crm5-25">
          <mxGeometry relative="1" as="geometry" />
        </mxCell>
        <mxCell id="GC7rGIHstX0zHKI9crm5-27" value="行业组件/模板建设" style="rounded=1;whiteSpace=wrap;html=1;strokeColor=none;fillColor=#2E6CF2;fontColor=#FFFFFF;" vertex="1" parent="1">
          <mxGeometry x="-2485.35" y="-810.57" width="125.35" height="32.98" as="geometry" />
        </mxCell>
        <mxCell id="GC7rGIHstX0zHKI9crm5-28" value="" style="edgeStyle=orthogonalEdgeStyle;rounded=0;orthogonalLoop=1;jettySize=auto;html=1;strokeColor=#2E6CF2;dashed=1;" edge="1" parent="1" source="GC7rGIHstX0zHKI9crm5-24" target="GC7rGIHstX0zHKI9crm5-27">
          <mxGeometry relative="1" as="geometry" />
        </mxCell>
        <mxCell id="GC7rGIHstX0zHKI9crm5-29" value="质量把控" style="rounded=1;whiteSpace=wrap;html=1;strokeColor=none;fillColor=#ebf1ff;" vertex="1" parent="1">
          <mxGeometry x="-2620" y="-726.0650029019152" width="90.07671755725192" height="32.984329657574" as="geometry" />
        </mxCell>
        <mxCell id="GC7rGIHstX0zHKI9crm5-30" value="开发范式持续建设" style="rounded=1;whiteSpace=wrap;html=1;strokeColor=none;fillColor=#2E6CF2;fontColor=#FFFFFF;" vertex="1" parent="1">
          <mxGeometry x="-2485.35" y="-749.76" width="125.35" height="32.98" as="geometry" />
        </mxCell>
        <mxCell id="GC7rGIHstX0zHKI9crm5-31" value="敏捷开发架构" style="rounded=1;whiteSpace=wrap;html=1;strokeColor=none;fillColor=#2E6CF2;fontColor=#FFFFFF;" vertex="1" parent="1">
          <mxGeometry x="-2485.35" y="-702.4" width="125.35" height="32.98" as="geometry" />
        </mxCell>
        <mxCell id="GC7rGIHstX0zHKI9crm5-32" value="多场景" style="rounded=1;whiteSpace=wrap;html=1;strokeColor=none;fillColor=#ebf1ff;" vertex="1" parent="1">
          <mxGeometry x="-2620" y="-605.8282066163667" width="90.07671755725192" height="32.984329657574" as="geometry" />
        </mxCell>
        <mxCell id="GC7rGIHstX0zHKI9crm5-33" value="业务多端复用适配" style="rounded=1;whiteSpace=wrap;html=1;strokeColor=none;fillColor=#2E6CF2;fontColor=#FFFFFF;" vertex="1" parent="1">
          <mxGeometry x="-2485.35" y="-628.56" width="125.35" height="32.98" as="geometry" />
        </mxCell>
        <mxCell id="GC7rGIHstX0zHKI9crm5-34" value="热点一体化运营" style="rounded=1;whiteSpace=wrap;html=1;strokeColor=none;fillColor=#2E6CF2;fontColor=#FFFFFF;" vertex="1" parent="1">
          <mxGeometry x="-2485.35" y="-582.98" width="125.35" height="32.98" as="geometry" />
        </mxCell>
        <mxCell id="GC7rGIHstX0zHKI9crm5-35" style="edgeStyle=orthogonalEdgeStyle;rounded=0;orthogonalLoop=1;jettySize=auto;html=1;entryX=-0.006;entryY=0.567;entryDx=0;entryDy=0;dashed=1;strokeColor=#2E6CF2;entryPerimeter=0;" edge="1" parent="1" target="GC7rGIHstX0zHKI9crm5-30">
          <mxGeometry relative="1" as="geometry">
            <mxPoint x="-2530.3875954198475" y="-707.7156123041207" as="sourcePoint" />
            <mxPoint x="-2499.742938931298" y="-739.288450377249" as="targetPoint" />
            <Array as="points">
              <mxPoint x="-2510" y="-708" />
              <mxPoint x="-2510" y="-731" />
            </Array>
          </mxGeometry>
        </mxCell>
        <mxCell id="GC7rGIHstX0zHKI9crm5-36" value="" style="edgeStyle=orthogonalEdgeStyle;rounded=0;orthogonalLoop=1;jettySize=auto;html=1;strokeColor=#2E6CF2;dashed=1;entryX=0.004;entryY=0.654;entryDx=0;entryDy=0;entryPerimeter=0;" edge="1" parent="1" target="GC7rGIHstX0zHKI9crm5-34">
          <mxGeometry relative="1" as="geometry">
            <mxPoint x="-2530.4061679389315" y="-589.5589088798607" as="sourcePoint" />
            <mxPoint x="-2499.7615114503815" y="-561.7005223447475" as="targetPoint" />
          </mxGeometry>
        </mxCell>
        <mxCell id="GC7rGIHstX0zHKI9crm5-37" style="edgeStyle=orthogonalEdgeStyle;rounded=0;orthogonalLoop=1;jettySize=auto;html=1;entryX=0;entryY=0.5;entryDx=0;entryDy=0;dashed=1;strokeColor=#2E6CF2;" edge="1" parent="1" target="GC7rGIHstX0zHKI9crm5-33">
          <mxGeometry relative="1" as="geometry">
            <mxPoint x="-2530.4061679389315" y="-589.5589088798607" as="sourcePoint" />
            <mxPoint x="-2499.7615114503815" y="-621.131746952989" as="targetPoint" />
          </mxGeometry>
        </mxCell>
      </root>
    </mxGraphModel>
  </diagram>
</mxfile>
